<svg width="143" height="34" viewBox="0 0 143 34" fill="none" xmlns="http://www.w3.org/2000/svg">
<path d="M55.984 25H52.624L45.016 13.504V25H41.656V8.224H45.016L52.624 19.744V8.224H55.984V25ZM71.6644 18.064C71.6644 18.544 71.6324 18.976 71.5684 19.36H61.8484C61.9284 20.32 62.2644 21.072 62.8564 21.616C63.4484 22.16 64.1764 22.432 65.0404 22.432C66.2884 22.432 67.1764 21.896 67.7044 20.824H71.3284C70.9444 22.104 70.2084 23.16 69.1204 23.992C68.0324 24.808 66.6964 25.216 65.1124 25.216C63.8324 25.216 62.6804 24.936 61.6564 24.376C60.6484 23.8 59.8564 22.992 59.2804 21.952C58.7204 20.912 58.4404 19.712 58.4404 18.352C58.4404 16.976 58.7204 15.768 59.2804 14.728C59.8404 13.688 60.6244 12.888 61.6324 12.328C62.6404 11.768 63.8004 11.488 65.1124 11.488C66.3764 11.488 67.5044 11.76 68.4964 12.304C69.5044 12.848 70.2804 13.624 70.8244 14.632C71.3844 15.624 71.6644 16.768 71.6644 18.064ZM68.1844 17.104C68.1684 16.24 67.8564 15.552 67.2484 15.04C66.6404 14.512 65.8964 14.248 65.0164 14.248C64.1844 14.248 63.4804 14.504 62.9044 15.016C62.3444 15.512 62.0004 16.208 61.8724 17.104H68.1844ZM78.0289 14.464V20.896C78.0289 21.344 78.1329 21.672 78.3409 21.88C78.5649 22.072 78.9329 22.168 79.4449 22.168H81.0049V25H78.8929C76.0609 25 74.6449 23.624 74.6449 20.872V14.464H73.0609V11.704H74.6449V8.416H78.0289V11.704H81.0049V14.464H78.0289ZM86.7816 13.648C87.2136 13.008 87.8056 12.488 88.5576 12.088C89.3256 11.688 90.1976 11.488 91.1736 11.488C92.3096 11.488 93.3336 11.768 94.2456 12.328C95.1736 12.888 95.9016 13.688 96.4296 14.728C96.9736 15.752 97.2456 16.944 97.2456 18.304C97.2456 19.664 96.9736 20.872 96.4296 21.928C95.9016 22.968 95.1736 23.776 94.2456 24.352C93.3336 24.928 92.3096 25.216 91.1736 25.216C90.1816 25.216 89.3096 25.024 88.5576 24.64C87.8216 24.24 87.2296 23.728 86.7816 23.104V25H83.4216V7.24H86.7816V13.648ZM93.8136 18.304C93.8136 17.504 93.6456 16.816 93.3096 16.24C92.9896 15.648 92.5576 15.2 92.0136 14.896C91.4856 14.592 90.9096 14.44 90.2856 14.44C89.6776 14.44 89.1016 14.6 88.5576 14.92C88.0296 15.224 87.5976 15.672 87.2616 16.264C86.9416 16.856 86.7816 17.552 86.7816 18.352C86.7816 19.152 86.9416 19.848 87.2616 20.44C87.5976 21.032 88.0296 21.488 88.5576 21.808C89.1016 22.112 89.6776 22.264 90.2856 22.264C90.9096 22.264 91.4856 22.104 92.0136 21.784C92.5576 21.464 92.9896 21.008 93.3096 20.416C93.6456 19.824 93.8136 19.12 93.8136 18.304ZM105.591 25.216C104.311 25.216 103.159 24.936 102.135 24.376C101.111 23.8 100.303 22.992 99.7113 21.952C99.1353 20.912 98.8473 19.712 98.8473 18.352C98.8473 16.992 99.1433 15.792 99.7353 14.752C100.343 13.712 101.167 12.912 102.207 12.352C103.247 11.776 104.407 11.488 105.687 11.488C106.967 11.488 108.127 11.776 109.167 12.352C110.207 12.912 111.023 13.712 111.615 14.752C112.223 15.792 112.527 16.992 112.527 18.352C112.527 19.712 112.215 20.912 111.591 21.952C110.983 22.992 110.151 23.8 109.095 24.376C108.055 24.936 106.887 25.216 105.591 25.216ZM105.591 22.288C106.199 22.288 106.767 22.144 107.295 21.856C107.839 21.552 108.271 21.104 108.591 20.512C108.911 19.92 109.071 19.2 109.071 18.352C109.071 17.088 108.735 16.12 108.063 15.448C107.407 14.76 106.599 14.416 105.639 14.416C104.679 14.416 103.871 14.76 103.215 15.448C102.575 16.12 102.255 17.088 102.255 18.352C102.255 19.616 102.567 20.592 103.191 21.28C103.831 21.952 104.631 22.288 105.591 22.288ZM120.896 25.216C119.616 25.216 118.464 24.936 117.44 24.376C116.416 23.8 115.608 22.992 115.016 21.952C114.44 20.912 114.152 19.712 114.152 18.352C114.152 16.992 114.448 15.792 115.04 14.752C115.648 13.712 116.472 12.912 117.512 12.352C118.552 11.776 119.712 11.488 120.992 11.488C122.272 11.488 123.432 11.776 124.472 12.352C125.512 12.912 126.328 13.712 126.92 14.752C127.528 15.792 127.832 16.992 127.832 18.352C127.832 19.712 127.52 20.912 126.896 21.952C126.288 22.992 125.456 23.8 124.4 24.376C123.36 24.936 122.192 25.216 120.896 25.216ZM120.896 22.288C121.504 22.288 122.072 22.144 122.6 21.856C123.144 21.552 123.576 21.104 123.896 20.512C124.216 19.92 124.376 19.2 124.376 18.352C124.376 17.088 124.04 16.12 123.368 15.448C122.712 14.76 121.904 14.416 120.944 14.416C119.984 14.416 119.176 14.76 118.52 15.448C117.88 16.12 117.56 17.088 117.56 18.352C117.56 19.616 117.872 20.592 118.496 21.28C119.136 21.952 119.936 22.288 120.896 22.288ZM138.169 25L133.657 19.336V25H130.297V7.24H133.657V17.344L138.121 11.704H142.489L136.633 18.376L142.537 25H138.169Z" fill="#2B2B39"/>
<path d="M34.0013 16.9998C34.0013 26.3887 26.3901 33.9998 17.0013 33.9998C13.0609 33.9998 9.43369 32.6592 6.55078 30.4093L24.7833 12.1768C25.6535 13.5773 26.1551 15.2292 26.1551 16.9998C26.1551 21.1925 23.3363 24.7269 19.4905 25.8111C18.9167 25.0652 18.0151 24.5844 17.0013 24.5844C15.2679 24.5844 13.8628 25.9896 13.8628 27.7229C13.8628 29.4562 15.2679 30.8613 17.0013 30.8613C18.2989 30.8613 19.4126 30.0738 19.8905 28.9507C25.2853 27.6511 29.2936 22.7935 29.2936 16.9998C29.2936 14.3617 28.4612 11.9159 27.0465 9.91356L30.4107 6.54932C32.6607 9.43223 34.0013 13.0595 34.0013 16.9998Z" fill="#FFAF2E"/>
<path d="M6.95477 24.0862L3.59053 27.4505C1.34058 24.5676 0 20.9403 0 17C0 7.61116 7.61116 0 17 0C20.9403 0 24.5676 1.34058 27.4505 3.59053L9.218 21.823C8.34783 20.4225 7.84615 18.7708 7.84615 17C7.84615 12.8073 10.6649 9.27294 14.5108 8.18866C15.0846 8.93463 15.9861 9.41538 17 9.41538C18.7333 9.41538 20.1385 8.01024 20.1385 6.27692C20.1385 4.54359 18.7333 3.13845 17 3.13845C15.7024 3.13845 14.5887 3.92597 14.1108 5.04914C8.71598 6.34871 4.70768 11.2063 4.70768 17C4.70768 19.6379 5.54001 22.0838 6.95477 24.0862Z" fill="#F04148"/>
<circle cx="16.9991" cy="6.27693" r="1.30769" fill="#F04148"/>
<circle cx="16.9991" cy="27.7232" r="1.30769" fill="#FFAF2E"/>
</svg>
